<?xml version="1.0" encoding="UTF-8"?>
<!DOCTYPE svg PUBLIC "-//W3C//DTD SVG 1.1//EN" "http://www.w3.org/Graphics/SVG/1.1/DTD/svg11.dtd">
<svg version="1.1" xmlns="http://www.w3.org/2000/svg" xmlns:xlink="http://www.w3.org/1999/xlink" x="0" y="0" width="360" height="180" viewBox="0, 0, 300, 150">
  <g id="Ebene_1">
    <path d="M151.508,5.334 L148.4,7.826 C141.149,14.413 138.207,16.522 130.063,20.595 C112.611,27.258 105.848,38.459 104.31,50.932 L131.201,58.562 L112.617,49.947 C113.949,36.048 122.654,26.646 138.524,23.826 L169.814,23.826 L147.231,46.009 L147.231,51.947 L154.061,51.947 C160.559,51.947 165.267,53.037 168.214,55.208 C171.202,57.41 172.706,60.741 172.706,65.239 C172.706,70.549 171.288,74.598 168.399,77.33 C165.541,80.033 161.343,81.298 155.846,81.361 C149.889,81.429 144.188,79.808 139.693,77.3 C137.863,79.274 136.142,80.946 133.816,82.192 C132.092,83.115 130.144,83.574 129.14,83.422 C127.902,83.235 127.665,81.885 127.663,80.899 C127.656,77.55 128.783,74.3 129.355,72.377 L127.909,71.638 C126.346,74.317 124.924,77.244 124.063,79.915 C121.769,80.879 119.889,81.384 118.248,81.607 C116.606,81.83 115.325,81.889 114.679,81.422 C113.737,80.742 113.919,79.364 114.187,78.438 C115.05,75.453 116.659,73.183 118.002,70.931 L116.771,69.854 C115.05,71.589 112.114,74.587 110.218,78.007 C108.879,80.42 108.292,82.567 108.741,84.253 C109.189,85.939 110.709,87.061 113.171,87.422 C115.571,87.774 118.939,87.388 123.386,86.222 C124.05,88.78 125.634,89.576 128.094,89.576 C130.886,89.576 135.15,87.888 140.247,84.776 C144.852,86.736 150.054,87.699 155.846,87.699 C163.857,87.699 170.8,85.771 175.414,80.376 C177.524,82.869 180.661,84.468 184.183,84.468 C190.535,84.468 195.69,79.314 195.69,72.961 C195.69,68.088 192.646,63.93 188.367,62.254 L188.367,67.515 C189.828,68.721 190.736,70.519 190.736,72.561 C190.736,76.191 187.813,79.146 184.183,79.146 C180.553,79.146 177.598,76.191 177.598,72.561 C177.598,70.53 178.52,68.721 179.968,67.515 L179.968,61.639 C179.39,57.203 177.694,53.714 174.86,51.178 C171.362,47.929 166.314,46.317 159.692,46.317 L156.677,46.317 L179.291,23.826 L179.291,17.457 L153.292,17.457 C153.459,14.786 152.831,11.999 152.277,9.242 L151.508,5.334 z M148.215,14.441 C148.334,15.527 148.388,16.581 148.339,17.457 L144.708,17.457 C145.898,16.482 147.109,15.459 148.215,14.441 z M126.832,37.456 C125.51,38.324 124.319,39.394 123.325,40.625 C122.169,42.055 121.286,43.709 120.709,45.455 C122.57,44.656 124.592,44.248 126.617,44.255 C128.605,44.262 130.604,44.67 132.432,45.455 C132.216,43.544 131.421,41.693 130.216,40.194 C129.299,39.052 128.142,38.11 126.832,37.456 z M181.844,60.9 L181.844,71.823 L186.49,71.823 L186.49,60.9 L181.844,60.9 z" fill="#1EC290" id="path3420"/>
    <path d="M66.653,114.602 L66.653,112.118 Q66.653,111.221 67.412,110.416 Q68.194,109.634 69.137,109.634 L71.621,109.634 Q72.564,109.634 73.323,109.496 Q74.105,109.335 74.105,108.392 Q74.105,107.472 73.323,107.311 Q72.61,107.15 71.621,107.15 L69.137,107.15 Q68.194,107.15 67.412,106.391 Q66.653,105.609 66.653,104.666 L66.653,103.447 L66.653,102.182 Q66.653,101.285 67.412,100.48 Q68.194,99.698 69.137,99.698 L74.105,99.698 Q75.048,99.698 75.807,99.56 Q76.589,99.399 76.589,98.456 Q76.589,97.536 75.807,97.375 Q75.094,97.214 74.105,97.214 L64.169,97.214 Q63.226,97.214 62.444,97.996 Q61.685,98.801 61.685,99.698 L61.685,117.086 Q61.685,118.029 62.444,118.811 Q63.226,119.57 64.169,119.57 L74.105,119.57 Q75.048,119.57 75.807,119.432 Q76.589,119.271 76.589,118.328 Q76.589,117.408 75.807,117.247 Q75.094,117.086 74.105,117.086 L69.137,117.086 Q68.194,117.086 67.412,116.327 Q66.653,115.545 66.653,114.602 z" fill="#1FC290"/>
    <path d="M89.284,117.086 Q89.284,118.029 90.066,118.811 Q90.848,119.57 91.768,119.57 Q92.711,119.57 93.47,118.811 Q94.252,118.029 94.252,117.086 L94.252,102.182 Q94.252,100.342 92.688,98.778 Q91.124,97.214 89.284,97.214 L86.8,97.214 L84.316,97.214 Q82.453,97.214 80.889,98.778 Q79.348,100.319 79.348,102.182 L79.348,117.086 Q79.348,118.029 80.107,118.811 Q80.889,119.57 81.832,119.57 Q82.729,119.57 83.534,118.811 Q84.316,118.029 84.316,117.086 L84.316,114.602 Q84.316,113.705 85.075,112.9 Q85.857,112.118 86.8,112.118 Q87.72,112.118 88.502,112.9 Q89.284,113.682 89.284,114.602 z M89.284,102.182 L89.284,107.15 Q89.284,108.07 88.502,108.852 Q87.72,109.634 86.8,109.634 Q85.857,109.634 85.075,108.852 Q84.316,108.07 84.316,107.15 L84.316,102.182 Q84.316,101.285 85.075,100.48 Q85.857,99.698 86.8,99.698 Q87.72,99.698 88.502,100.48 Q89.284,101.262 89.284,102.182 z" fill="#1FC290"/>
    <path d="M104.463,99.698 Q106.142,99.698 106.717,100.089 Q107.246,100.457 107.476,100.94 Q107.591,101.17 107.717,101.389 Q107.844,101.607 107.982,101.791 Q108.258,102.182 109.431,102.182 Q110.374,102.182 111.133,101.423 Q111.915,100.641 111.915,99.698 Q111.915,98.778 111.133,97.996 Q110.374,97.214 109.431,97.214 L101.979,97.214 Q100.116,97.214 98.552,98.778 Q97.011,100.319 97.011,102.182 Q97.011,102.803 97.207,103.597 Q97.402,104.39 97.747,105.218 Q98.092,106.046 98.563,106.84 Q99.035,107.633 99.587,108.254 Q100.139,108.875 100.749,109.255 Q101.358,109.634 101.979,109.634 Q103.819,109.634 105.383,111.198 Q106.947,112.762 106.947,114.602 Q106.947,115.545 106.165,116.327 Q105.36,117.086 104.463,117.086 Q103.06,117.086 102.416,116.695 Q101.841,116.327 101.473,115.844 Q101.312,115.614 101.14,115.396 Q100.967,115.177 100.783,114.993 Q100.392,114.602 99.495,114.602 Q98.552,114.602 97.77,115.384 Q97.011,116.189 97.011,117.086 Q97.011,118.029 97.77,118.811 Q98.552,119.57 99.495,119.57 L106.947,119.57 Q108.81,119.57 110.351,118.029 Q111.915,116.465 111.915,114.602 Q111.915,113.981 111.72,113.188 Q111.524,112.394 111.179,111.566 Q110.834,110.738 110.363,109.945 Q109.891,109.151 109.339,108.53 Q108.787,107.909 108.178,107.53 Q107.568,107.15 106.947,107.15 Q105.061,107.15 103.52,105.609 Q101.979,104.068 101.979,102.182 Q101.979,101.285 102.738,100.48 Q103.52,99.698 104.463,99.698 z" fill="#1FC290"/>
    <path d="M117.158,97.214 Q116.169,97.214 115.433,97.375 Q114.674,97.559 114.674,98.456 Q114.674,99.399 115.433,99.56 Q116.215,99.698 117.158,99.698 Q118.078,99.698 118.86,100.48 Q119.642,101.262 119.642,102.182 L119.642,117.086 Q119.642,118.029 120.401,118.811 Q121.183,119.57 122.126,119.57 Q123.023,119.57 123.828,118.811 Q124.61,118.029 124.61,117.086 L124.61,102.182 Q124.61,101.262 125.392,100.48 Q126.174,99.698 127.094,99.698 Q128.037,99.698 128.796,99.56 Q129.578,99.399 129.578,98.456 Q129.578,97.536 128.796,97.375 Q128.083,97.214 127.094,97.214 z" fill="#1FC290"/>
    <path d="M137.305,114.602 L137.305,112.118 Q137.305,111.221 138.064,110.416 Q138.846,109.634 139.789,109.634 L142.273,109.634 Q143.216,109.634 143.975,109.496 Q144.757,109.335 144.757,108.392 Q144.757,107.472 143.975,107.311 Q143.262,107.15 142.273,107.15 L139.789,107.15 Q138.846,107.15 138.064,106.391 Q137.305,105.609 137.305,104.666 L137.305,103.447 L137.305,102.182 Q137.305,101.285 138.064,100.48 Q138.846,99.698 139.789,99.698 L144.757,99.698 Q145.7,99.698 146.459,99.56 Q147.241,99.399 147.241,98.456 Q147.241,97.536 146.459,97.375 Q145.746,97.214 144.757,97.214 L134.821,97.214 Q133.878,97.214 133.096,97.996 Q132.337,98.801 132.337,99.698 L132.337,117.086 Q132.337,118.029 133.096,118.811 Q133.878,119.57 134.821,119.57 L144.757,119.57 Q145.7,119.57 146.459,119.432 Q147.241,119.271 147.241,118.328 Q147.241,117.408 146.459,117.247 Q145.746,117.086 144.757,117.086 L139.789,117.086 Q138.846,117.086 138.064,116.327 Q137.305,115.545 137.305,114.602 z" fill="#1FC290"/>
    <path d="M162.42,110.876 Q162.42,109.91 162.811,109.082 Q163.202,108.254 163.662,107.311 Q164.122,106.368 164.513,105.161 Q164.904,103.953 164.904,102.182 Q164.904,100.342 163.34,98.778 Q161.776,97.214 159.936,97.214 L152.484,97.214 Q151.541,97.214 150.759,97.996 Q150,98.801 150,99.698 L150,117.086 Q150,118.029 150.759,118.811 Q151.541,119.57 152.484,119.57 Q153.381,119.57 154.186,118.811 Q154.968,118.029 154.968,117.086 L154.968,112.118 Q154.968,111.221 155.106,110.416 Q155.267,109.634 156.21,109.634 Q156.67,109.634 157.314,110.623 Q157.636,111.129 157.935,111.693 Q158.234,112.256 158.533,112.9 Q158.832,113.544 159.074,114.177 Q159.315,114.809 159.522,115.407 Q159.936,116.626 159.936,117.086 Q159.936,118.029 160.718,118.811 Q161.5,119.57 162.42,119.57 Q163.363,119.57 164.122,118.811 Q164.904,118.029 164.904,117.086 Q164.904,116.189 164.72,115.58 Q164.536,114.97 164.26,114.533 Q163.984,114.096 163.662,113.751 Q163.34,113.406 163.064,113.015 Q162.788,112.624 162.604,112.13 Q162.42,111.635 162.42,110.876 z M154.968,102.182 Q154.968,101.285 155.727,100.48 Q156.509,99.698 157.452,99.698 Q158.372,99.698 159.154,100.48 Q159.936,101.262 159.936,102.182 L159.936,104.666 Q159.936,105.609 159.154,106.391 Q158.349,107.15 157.452,107.15 Q156.509,107.15 155.727,106.391 Q154.968,105.609 154.968,104.666 z" fill="#1FC290"/>
    <path d="M182.567,117.086 L182.567,99.698 Q182.567,98.778 181.785,97.996 Q181.026,97.214 180.083,97.214 Q179.163,97.214 178.381,97.996 Q177.599,98.778 177.599,99.698 L177.599,104.666 Q177.599,105.609 176.817,106.391 Q176.012,107.15 175.115,107.15 Q174.172,107.15 173.39,106.391 Q172.631,105.609 172.631,104.666 L172.631,99.698 Q172.631,98.778 171.849,97.996 Q171.067,97.214 170.147,97.214 Q169.204,97.214 168.422,97.996 Q167.663,98.801 167.663,99.698 L167.663,117.086 Q167.663,118.029 168.422,118.811 Q169.204,119.57 170.147,119.57 Q171.044,119.57 171.849,118.811 Q172.631,118.029 172.631,117.086 L172.631,112.118 Q172.631,111.221 173.39,110.416 Q174.172,109.634 175.115,109.634 Q176.035,109.634 176.817,110.416 Q177.599,111.198 177.599,112.118 L177.599,117.086 Q177.599,118.029 178.381,118.811 Q179.163,119.57 180.083,119.57 Q181.026,119.57 181.785,118.811 Q182.567,118.029 182.567,117.086 z" fill="#1FC290"/>
    <path d="M190.294,114.602 L190.294,112.118 Q190.294,111.221 191.053,110.416 Q191.835,109.634 192.778,109.634 L195.262,109.634 Q196.205,109.634 196.964,109.496 Q197.746,109.335 197.746,108.392 Q197.746,107.472 196.964,107.311 Q196.251,107.15 195.262,107.15 L192.778,107.15 Q191.835,107.15 191.053,106.391 Q190.294,105.609 190.294,104.666 L190.294,103.447 L190.294,102.182 Q190.294,101.285 191.053,100.48 Q191.835,99.698 192.778,99.698 L197.746,99.698 Q198.689,99.698 199.448,99.56 Q200.23,99.399 200.23,98.456 Q200.23,97.536 199.448,97.375 Q198.735,97.214 197.746,97.214 L187.81,97.214 Q186.867,97.214 186.085,97.996 Q185.326,98.801 185.326,99.698 L185.326,117.086 Q185.326,118.029 186.085,118.811 Q186.867,119.57 187.81,119.57 L197.746,119.57 Q198.689,119.57 199.448,119.432 Q200.23,119.271 200.23,118.328 Q200.23,117.408 199.448,117.247 Q198.735,117.086 197.746,117.086 L192.778,117.086 Q191.835,117.086 191.053,116.327 Q190.294,115.545 190.294,114.602 z" fill="#1FC290"/>
    <path d="M217.893,102.182 Q217.893,100.342 216.329,98.778 Q214.765,97.214 212.925,97.214 L207.957,97.214 Q206.094,97.214 204.53,98.778 Q202.989,100.319 202.989,102.182 L202.989,114.602 Q202.989,116.488 204.53,118.029 Q206.071,119.57 207.957,119.57 L215.409,119.57 Q216.352,119.57 217.111,118.811 Q217.893,118.029 217.893,117.086 L217.893,112.118 Q217.893,111.198 217.111,110.416 Q216.352,109.634 215.409,109.634 L212.925,109.634 Q211.936,109.634 211.2,109.795 Q210.441,109.979 210.441,110.876 Q210.441,111.658 210.832,111.773 Q211.016,111.819 211.234,111.877 Q211.453,111.934 211.683,111.98 Q212.166,112.095 212.534,112.555 Q212.925,113.061 212.925,114.602 Q212.925,115.545 212.143,116.327 Q211.338,117.086 210.441,117.086 Q209.498,117.086 208.716,116.327 Q207.957,115.545 207.957,114.602 L207.957,102.182 Q207.957,101.285 208.716,100.48 Q209.498,99.698 210.441,99.698 Q211.361,99.698 212.143,100.48 Q212.925,101.262 212.925,102.182 Q212.925,103.125 213.707,103.907 Q214.489,104.666 215.409,104.666 Q216.352,104.666 217.111,103.907 Q217.893,103.125 217.893,102.182 z" fill="#1FC290"/>
    <path d="M235.556,102.182 Q235.556,100.342 233.992,98.778 Q232.428,97.214 230.588,97.214 L225.62,97.214 Q223.757,97.214 222.193,98.778 Q220.652,100.319 220.652,102.182 L220.652,114.602 Q220.652,116.488 222.193,118.029 Q223.734,119.57 225.62,119.57 L233.072,119.57 Q234.015,119.57 234.774,118.811 Q235.556,118.029 235.556,117.086 L235.556,112.118 Q235.556,111.198 234.774,110.416 Q234.015,109.634 233.072,109.634 L230.588,109.634 Q229.599,109.634 228.863,109.795 Q228.104,109.979 228.104,110.876 Q228.104,111.658 228.495,111.773 Q228.679,111.819 228.898,111.877 Q229.116,111.934 229.346,111.98 Q229.829,112.095 230.197,112.555 Q230.588,113.061 230.588,114.602 Q230.588,115.545 229.806,116.327 Q229.001,117.086 228.104,117.086 Q227.161,117.086 226.379,116.327 Q225.62,115.545 225.62,114.602 L225.62,102.182 Q225.62,101.285 226.379,100.48 Q227.161,99.698 228.104,99.698 Q229.024,99.698 229.806,100.48 Q230.588,101.262 230.588,102.182 Q230.588,103.125 231.37,103.907 Q232.152,104.666 233.072,104.666 Q234.015,104.666 234.774,103.907 Q235.556,103.125 235.556,102.182 z" fill="#1FC290"/>
    <path d="M115.985,146.635 Q115.985,147.578 116.744,148.36 Q117.526,149.119 118.469,149.119 L128.405,149.119 Q129.348,149.119 130.107,148.981 Q130.889,148.82 130.889,147.877 Q130.889,146.957 130.107,146.796 Q129.394,146.635 128.405,146.635 L124.679,146.635 Q123.736,146.635 122.954,146.497 Q122.195,146.336 122.195,145.393 Q122.195,141.989 123.552,140.011 Q124.886,138.056 126.542,136.722 Q127.347,136.055 128.106,135.48 Q128.865,134.905 129.532,134.376 Q130.889,133.295 130.889,131.731 Q130.889,129.891 129.325,128.327 Q127.761,126.763 125.921,126.763 L120.953,126.763 Q119.09,126.763 117.526,128.327 Q115.985,129.868 115.985,131.731 Q115.985,132.674 116.744,133.456 Q117.526,134.215 118.469,134.215 Q119.366,134.215 120.171,133.456 Q120.953,132.674 120.953,131.731 Q120.953,130.834 121.712,130.029 Q122.494,129.247 123.437,129.247 Q126.174,129.247 125.346,131.501 Q124.541,133.778 122.448,136.699 Q121.39,138.171 120.332,139.62 Q119.274,141.069 118.17,142.518 Q115.985,145.393 115.985,146.635 z" fill="#1FC290"/>
    <path d="M148.552,144.151 L148.552,131.731 Q148.552,129.891 146.988,128.327 Q145.424,126.763 143.584,126.763 L138.616,126.763 Q136.753,126.763 135.189,128.327 Q133.648,129.868 133.648,131.731 L133.648,144.151 Q133.648,146.037 135.189,147.578 Q136.73,149.119 138.616,149.119 L143.584,149.119 Q145.447,149.119 146.988,147.578 Q148.552,146.014 148.552,144.151 z M143.584,131.731 L138.616,139.183 L138.616,131.731 Q138.616,130.834 139.375,130.029 Q140.157,129.247 141.1,129.247 Q142.02,129.247 142.802,130.029 Q143.584,130.811 143.584,131.731 z M138.616,144.151 Q139.858,142.61 141.1,140.425 Q142.342,138.263 143.584,136.699 L143.584,144.151 Q143.584,145.094 142.802,145.876 Q142.043,146.635 141.1,146.635 Q140.157,146.635 139.375,145.876 Q138.616,145.094 138.616,144.151 z" fill="#1FC290"/>
    <path d="M158.763,146.635 Q158.763,147.578 159.522,148.36 Q160.304,149.119 161.247,149.119 Q162.19,149.119 162.949,148.36 Q163.731,147.578 163.731,146.635 L163.731,129.247 Q163.731,128.327 162.949,127.545 Q162.19,126.763 161.247,126.763 Q159.016,126.763 158.096,127.545 Q157.199,128.35 156.716,129.27 Q156.256,130.167 155.727,130.972 Q155.198,131.731 153.795,131.731 Q152.806,131.731 152.07,131.892 Q151.311,132.076 151.311,132.973 Q151.311,133.916 152.07,134.077 Q152.852,134.215 153.795,134.215 L156.279,134.215 Q157.199,134.215 157.981,134.997 Q158.763,135.756 158.763,136.699 z" fill="#1FC290"/>
    <path d="M176.288,139.183 L173.804,139.183 Q172.861,139.183 172.079,138.401 Q171.32,137.619 171.32,136.699 L171.32,131.731 Q171.32,130.834 172.079,130.029 Q172.861,129.247 173.804,129.247 L178.772,129.247 Q179.715,129.247 180.474,129.109 Q181.256,128.948 181.256,128.005 Q181.256,127.085 180.474,126.924 Q179.761,126.763 178.772,126.763 L168.836,126.763 Q167.893,126.763 167.111,127.545 Q166.352,128.35 166.352,129.247 L166.352,139.183 Q166.352,140.126 167.111,140.908 Q167.893,141.667 168.836,141.667 L173.804,141.667 Q174.724,141.667 175.506,142.449 Q176.288,143.231 176.288,144.151 Q176.288,145.094 175.506,145.876 Q174.701,146.635 173.804,146.635 L168.836,146.635 Q167.847,146.635 167.111,146.796 Q166.352,146.98 166.352,147.877 Q166.352,148.82 167.111,148.981 Q167.893,149.119 168.836,149.119 L176.288,149.119 Q178.151,149.119 179.692,147.578 Q181.256,146.014 181.256,144.151 Q181.256,142.311 179.692,140.747 Q178.128,139.183 176.288,139.183 z" fill="#1FC290"/>
  </g>
</svg>
